Coordinates
version=1
nRows=60
nColumns=12
inDegrees=yes

Units are S.I. units (second, meters, Newtons, ...)
Angles are in degrees

endheader
time	SC_y	SC_z	SC_x	AC_y	AC_z	AC_x	GH_y	GH_z	GH_yy	EL_x	PS_y
       0.0              -39.72          17.63          40.33          36.49         -2.622            7.8          132.5         -15.42         -18.72          69.63          121.6
   0.02855              -39.72          17.63          40.33          36.49         -2.625          7.799          132.5         -15.42         -18.71          69.63          121.6
    0.0571              -39.72          17.63          40.33          36.48         -2.627          7.799          132.4         -15.41          -18.7          69.63          121.6
   0.08564              -39.73          17.63          40.33          36.48          -2.63          7.798          132.4         -15.41          -18.7          69.63          121.6
    0.1142              -39.73          17.62          40.33          36.48         -2.632          7.797          132.4         -15.41         -18.69          69.63          121.6
    0.1427              -39.73          17.62          40.33          36.48         -2.635          7.797          132.3         -15.41         -18.69          69.63          121.6
    0.1713              -39.73          17.62          40.34          36.48         -2.638          7.796          132.3         -15.41         -18.68          69.63          121.6
    0.1998              -39.73          17.61          40.34          36.48         -2.641          7.795          132.2          -15.4         -18.67          69.63          121.5
    0.2284              -39.74          17.61          40.34          36.48         -2.645          7.795          132.2          -15.4         -18.66          69.63          121.5
    0.2569              -39.74           17.6          40.34          36.48         -2.649          7.794          132.1          -15.4         -18.66          69.63          121.5
    0.2855              -39.74           17.6          40.34          36.48         -2.653          7.793          132.1         -15.39         -18.65          69.64          121.5
     0.314              -39.74          17.59          40.35          36.48         -2.657          7.792          132.0         -15.39         -18.64          69.64          121.5
    0.3426              -39.75          17.59          40.35          36.47         -2.662          7.791          131.9         -15.39         -18.63          69.64          121.5
    0.3711              -39.75          17.58          40.35          36.47         -2.667           7.79          131.8         -15.38         -18.62          69.64          121.5
    0.3997              -39.75          17.58          40.36          36.47         -2.672          7.788          131.8         -15.38          -18.6          69.64          121.4
    0.4282              -39.76          17.57          40.36          36.47         -2.678          7.787          131.7         -15.37         -18.59          69.64          121.4
    0.4568              -39.76          17.56          40.36          36.47         -2.684          7.785          131.6         -15.37         -18.58          69.65          121.4
    0.4853              -39.77          17.56          40.37          36.47         -2.691          7.784          131.5         -15.36         -18.56          69.65          121.4
    0.5139              -39.77          17.55          40.37          36.46         -2.699          7.782          131.4         -15.36         -18.54          69.65          121.3
    0.5424              -39.78          17.54          40.38          36.46         -2.707           7.78          131.2         -15.35         -18.52          69.66          121.3
     0.571              -39.78          17.53          40.38          36.46         -2.716          7.778          131.1         -15.34          -18.5          69.66          121.3
    0.5995              -39.79          17.52          40.39          36.46         -2.726          7.776          130.9         -15.34         -18.48          69.66          121.3
    0.6281               -39.8           17.5          40.39          36.45         -2.738          7.773          130.8         -15.33         -18.45          69.67          121.2
    0.6566              -39.81          17.49           40.4          36.45          -2.75           7.77          130.6         -15.32         -18.43          69.67          121.2
    0.6852              -39.81          17.47          40.41          36.45         -2.764          7.767          130.4         -15.31          -18.4          69.68          121.1
    0.7137              -39.82          17.46          40.42          36.44         -2.779          7.763          130.2          -15.3         -18.36          69.68          121.1
    0.7422              -39.84          17.44          40.43          36.44         -2.796           7.76          129.9         -15.28         -18.32          69.69          121.0
    0.7708              -39.85          17.42          40.44          36.43         -2.815          7.755          129.6         -15.27         -18.28          69.69          121.0
    0.7993              -39.86          17.39          40.45          36.43         -2.837           7.75          129.3         -15.25         -18.23           69.7          120.9
    0.8279              -39.88          17.36          40.47          36.42         -2.862          7.744          128.9         -15.23         -18.17          69.71          120.8
    0.8564               -39.9          17.33          40.48          36.41          -2.89          7.738          128.5         -15.21         -18.11          69.72          120.7
     0.885              -39.92           17.3           40.5           36.4         -2.923           7.73          128.0         -15.18         -18.04          69.73          120.6
    0.9135              -39.95          17.25          40.52          36.39          -2.96          7.722          127.4         -15.15         -17.95          69.74          120.5
    0.9421              -39.97           17.2          40.55          36.38         -3.004          7.712          126.8         -15.12         -17.85          69.76          120.3
    0.9706              -40.01          17.15          40.58          36.36         -3.054            7.7          126.0         -15.08         -17.74          69.78          120.1
    0.9992              -40.05          17.08          40.62          36.35         -3.114          7.686          125.1         -15.03          -17.6           69.8          119.9
     1.028               -40.1           17.0          40.66          36.33         -3.186          7.669          124.1         -14.98         -17.44          69.82          119.7
     1.056              -40.15           16.9          40.71           36.3         -3.271           7.65          122.8         -14.91         -17.25          69.85          119.4
     1.085              -40.22          16.79          40.77          36.27         -3.375          7.626          121.2         -14.83         -17.02          69.89          119.1
     1.113              -40.31          16.64          40.84          36.24         -3.501          7.596          119.3         -14.73         -16.73          69.93          118.6
     1.142              -40.41          16.47          40.93          36.19         -3.657           7.56          117.0         -14.61         -16.38          69.99          118.1
      1.17              -40.54          16.25          41.05          36.14         -3.851          7.515          114.1         -14.46         -15.94          70.06          117.5
     1.199               -40.7          15.97          41.19          36.07         -4.096          7.459          110.4         -14.26         -15.39          70.14          116.6
     1.228              -40.91          15.62          41.37          35.98         -4.407          7.387          105.8         -14.02         -14.68          70.25          115.6
     1.256              -41.18          15.17          41.61          35.87         -4.806          7.294          99.79         -13.71         -13.78          70.39          114.2
     1.285              -41.52           14.6          41.91          35.72         -5.317          7.176          92.13         -13.31         -12.63          70.57          112.5
     1.313              -41.96          13.86          42.29          35.54          -5.97          7.025          82.35          -12.8         -11.15           70.8          110.3
     1.342               -42.5          12.94          42.78          35.31         -6.791          6.835          70.04         -12.16         -9.298          71.09          107.5
      1.37              -43.17          11.81          43.36          35.03         -7.792          6.603          55.04         -11.37         -7.038          71.44          104.1
     1.399              -43.95           10.5          44.04           34.7         -8.952          6.335          37.66         -10.46         -4.418          71.85          100.2
     1.427              -44.79          9.087          44.78          34.34         -10.21          6.044          18.84         -9.482          -1.58          72.29          95.97
     1.456              -45.62          7.672          45.52          33.99         -11.46          5.753        0.02164         -8.499          1.257          72.73          91.72
     1.484               -46.4          6.366           46.2          33.66         -12.62          5.485         -17.36         -7.592          3.877          73.14           87.8
     1.513              -47.07          5.238          46.79          33.38         -13.62          5.253         -32.36         -6.808          6.137          73.49          84.42
     1.542              -47.61          4.313          47.27          33.15         -14.45          5.063         -44.66         -6.166          7.992          73.78          81.64
      1.57              -48.05          3.577          47.66          32.96          -15.1          4.912         -54.45         -5.655          9.468          74.01          79.44
     1.599              -48.39          3.001          47.96          32.82         -15.61          4.794         -62.11         -5.255          10.62          74.19          77.71
     1.627              -48.66          2.552          48.19           32.7         -16.01          4.702         -68.08         -4.943          11.52          74.33          76.36
     1.656              -48.87          2.202          48.37          32.62         -16.32           4.63         -72.74         -4.699          12.23          74.44          75.31
     1.684              -49.03          1.926          48.52          32.55         -16.56          4.573         -76.41         -4.508          12.78          74.53          74.48
